<svg width="377" height="512" viewBox="0 0 377 512" fill="none" xmlns="http://www.w3.org/2000/svg">
<mask id="mask0" mask-type="alpha" maskUnits="userSpaceOnUse" x="0" y="0" width="377" height="512">
<rect x="0.724854" y="0.885254" width="376" height="511" fill="#C4C4C4"/>
</mask>
<g mask="url(#mask0)">
<path opacity="0.5" d="M195.733 439.807C260.952 478.167 367.422 408.652 402.764 381.32L460.838 64.1328L-189.058 -130.796C-348.526 52.7959 -495.083 154.627 -282.466 372.067C-120.68 537.523 3.46753 517.381 57.1367 485.938C99.5671 461.08 150.473 413.186 195.733 439.807Z" fill="#232E27"/>
<path opacity="0.5" d="M203.317 414.52C268.537 452.88 375.006 383.365 410.348 356.033L468.423 38.846L-181.473 -156.083C-340.941 27.5091 -487.499 129.34 -274.881 346.781C-113.095 512.236 11.052 492.094 64.7212 460.652C107.152 435.794 158.057 387.899 203.317 414.52Z" fill="#232E27"/>
<path opacity="0.5" d="M210.902 389.233C276.122 427.594 382.591 358.078 417.933 330.746L476.007 13.5592L-173.889 -181.37C-333.357 2.22232 -479.914 104.054 -267.297 321.494C-105.51 486.949 18.6366 466.807 72.3058 435.365C114.736 410.507 165.642 362.613 210.902 389.233Z" fill="#232E27"/>
<path opacity="0.5" d="M218.486 363.947C283.706 402.307 390.175 332.792 425.517 305.46L483.592 -11.7276L-166.304 -206.657C-325.772 -23.0645 -472.33 78.7669 -259.712 296.207C-97.926 461.663 26.2211 441.52 79.8903 410.078C122.321 385.22 173.226 337.326 218.486 363.947Z" fill="#232E27"/>
<path opacity="0.5" d="M226.071 338.66C291.29 377.02 397.76 307.505 433.102 280.173L491.176 -37.0144L-158.72 -231.944C-318.188 -48.3513 -464.745 53.4801 -252.128 270.92C-90.3415 436.376 33.8055 416.234 87.4748 384.791C129.905 359.933 180.811 312.039 226.071 338.66Z" fill="#232E27"/>
<path opacity="0.5" d="M233.656 313.373C298.875 351.733 405.344 282.218 440.686 254.886L498.761 -62.3011L-151.135 -257.23C-310.603 -73.638 -457.161 28.1933 -244.543 245.633C-82.7569 411.089 41.3901 390.947 95.0593 359.504C137.49 334.647 188.395 286.752 233.656 313.373Z" fill="#232E27"/>
</g>
</svg>
