<svg width="375" height="812" viewBox="0 0 375 812" fill="none" xmlns="http://www.w3.org/2000/svg">
<g clip-path="url(#clip0)">
<path fill-rule="evenodd" clip-rule="evenodd" d="M177.721 465.457C178.02 465.417 178.307 465.386 178.599 465.38C182.032 465.308 184.903 467.548 186.559 470.572C178.003 460.967 166.305 473.183 162.757 482.197C161.774 484.678 160.981 487.466 160.663 490.283C160.833 487.504 161.408 484.744 162.188 482.249C164.635 474.772 169.734 466.721 177.721 465.457Z" fill="black" fill-opacity="0.15"/>
<path fill-rule="evenodd" clip-rule="evenodd" d="M111.79 379.999C108.282 380.013 104.825 382.07 103.933 384.752C98.3233 384.776 91.8205 387.642 87.8061 389.841C84.8369 391.468 82.7248 394.648 80.156 395.86C63.2216 403.857 66.7547 414.671 61.7031 424.613C60.6614 426.663 60.9764 430.133 59.6355 432.001C56.8252 435.918 43.9491 445.696 41.6218 449.697C41.2387 450.356 42.6628 451.488 43.4051 451.661C47.8984 452.706 53.3295 452.728 57.258 452.074C57.8864 453.384 54.9155 455.662 54.5184 457.06C53.5692 460.4 56.3567 465.161 55.5005 467.419C53.9401 467.557 49.2758 467.413 47.2302 467.393C43.0421 467.353 37.5415 464.373 34.8246 466.541C33.4641 467.626 34.6379 470.974 33.3515 472.146C32.9532 472.509 31.9367 472.037 31.5683 472.431C30.3508 473.73 30.541 477.157 30.9738 478.346C31.5199 479.847 34.7254 480.163 35.4708 481.576C36.1127 482.792 36.0263 483.877 34.8247 484.547C29.1729 487.695 17.2304 508.315 11.1252 519.318C3.57433 532.927 -4.69027 551.811 -9.47302 566.62C-15.0336 583.835 -43.285 811.364 -32 825.5C5.24225 872.17 64.8205 846.348 120.786 825.5C129.731 822.168 137.03 637.614 150.83 619.134C154.93 613.644 160.996 604.105 165.485 596.585C167.23 596.722 167.414 596.289 167.605 595.598C167.966 594.298 167.417 594.573 167.099 593.301C172.227 586.669 177.463 572.329 178.522 562.482C178.869 559.259 176.777 559.688 176.894 558.064C177.056 555.807 179.84 553.955 179.556 551.709C179.336 549.969 176.914 549.316 176.61 547.421C178.171 545.683 181.86 541.497 184.57 538.87C186.64 539.19 188.658 535.68 187.154 533.548C183.899 528.932 178.477 525.475 172.837 524.17H172.811C172.094 523.759 171.554 523.191 171.208 522.103C171.118 521.82 171.702 521.54 171.88 521.303C172.178 520.906 172.358 520.131 172.165 519.675C171.977 519.234 171.054 519.228 170.846 518.797C170.124 517.294 170.672 514.149 171.131 512.157C174.369 511.459 177.484 509.767 179.789 507.559C189.787 498.66 195.319 484.011 192.066 470.772C190.691 465.26 186.213 460.372 180.332 460.258C179.939 460.25 179.547 460.273 179.143 460.309C168.366 461.503 161.12 471.541 157.459 480.976C154.139 489.898 153.056 501.668 159.785 509.134C161.989 511.445 164.808 512.436 167.719 512.493C166.864 517.334 163.012 520.587 159.035 521.379C157.62 521.662 157.994 523.431 158.208 524.247C158.422 525.063 159.226 525.229 159.475 525.875C159.698 526.455 159.776 527.194 159.759 527.993C159.198 528.467 158.629 528.928 158.053 529.414C154.641 532.293 151.045 538.558 148.284 542.356C145.566 540.883 146.624 539.04 141.332 537.654L145.105 527.063L142.908 526.185L144.123 521.69H146.087L146.682 520.605L144.718 519.546L145.157 517.944L146.294 517.841C150.124 504.442 151.268 493.741 135.104 487.098C136.08 485.798 137.509 484.658 138.36 483.352C139.308 481.897 138.699 478.639 140.273 477.901C142.654 478.932 148.141 482.06 150.146 476.739C152.513 470.454 146.218 458.879 147.199 452.223C147.684 448.935 150.19 451.391 151.05 449.407C151.597 448.146 151.013 445.609 151.567 442.975C155.743 443.909 165.822 445.192 170.667 445.532C171.806 445.612 172.888 444.259 172.295 443.724C166.096 438.127 158.337 430.307 154.436 427.268C154.048 425.607 155.117 422.782 154.229 421.352C150.864 415.931 148.895 412.403 147.174 402.494C146.563 398.981 130.593 389.86 120.786 386.813C120.397 383.773 116.252 380.3 112.516 380.019C112.282 380.001 112.026 379.992 111.792 379.993L111.79 379.999ZM189.015 478.116C189.158 471.752 186.17 463.046 178.677 463.055C173.408 463.223 169.19 467.012 166.039 470.83C159.29 479.788 155.271 492.664 159.733 503.665C161.757 509.048 168.51 511.209 173.379 508.134C183.679 502.12 188.714 489.765 189.015 478.116ZM134.147 488.991C145.374 493.809 147.832 501.431 141.073 516.582L142.236 517.202L141.951 518.829H139.935L139.884 520.302L141.564 521.102L140.814 525.468L138.488 525.21C137.75 540.562 133.246 534.632 133.345 545.386C133.414 552.94 137.024 557.077 139.496 559.258C139.092 559.779 138.673 560.284 138.204 560.731C135.478 563.328 133.141 565.821 131.484 567.215C124.626 556.877 111.731 539.692 103.934 530.015C102.368 528.072 102.336 524.115 104.166 522.42C107.258 521.555 110.414 524.762 110.964 522.626C112.491 516.685 96.4647 510.411 99.1269 504.853C105.776 503.713 111.611 505.499 116.779 505.447C121.947 505.395 127.237 504.76 128.307 503.148C129.739 500.988 129.851 498.226 130.684 495.889C131.108 494.7 132.711 494.038 133.114 493.228C133.75 491.947 133.743 490.378 134.147 488.991Z" fill="black" fill-opacity="0.15"/>
</g>
<defs>
<clipPath id="clip0">
<rect width="375" height="812" fill="white"/>
</clipPath>
</defs>
</svg>
