<svg width="375" height="437" viewBox="0 0 375 437" fill="none" xmlns="http://www.w3.org/2000/svg">
<mask id="mask0" mask-type="alpha" maskUnits="userSpaceOnUse" x="0" y="0" width="375" height="437">
<rect width="375" height="437" fill="#C4C4C4"/>
</mask>
<g mask="url(#mask0)">
<path d="M108 266.4C34.5093 248.394 -47.5 345.567 -73.5 381.9L-38 702.4H640.5C740.5 480.733 851.624 341.089 585.5 193.9C383 81.8999 269.873 136.86 227.5 182.395C194 218.395 159 278.895 108 266.4Z" fill="#DFDFDF"/>
<path opacity="0.5" d="M108 266.4C34.5093 248.394 -47.5 345.567 -73.5 381.9L-38 702.4H640.5C740.5 480.733 851.624 341.089 585.5 193.9C383 81.8999 269.873 136.86 227.5 182.395C194 218.395 159 278.895 108 266.4Z" fill="#232E27"/>
<path opacity="0.5" d="M108 292.8C34.5093 274.794 -47.5 371.966 -73.5 408.3L-38 728.799H640.5C740.5 507.133 851.624 367.489 585.5 220.3C383 108.3 269.873 163.259 227.5 208.795C194 244.795 159 305.295 108 292.8Z" fill="#232E27"/>
<path opacity="0.5" d="M108 319.199C34.5093 301.193 -47.5 398.366 -73.5 434.699L-38 755.199H640.5C740.5 533.532 851.624 393.889 585.5 246.699C383 134.699 269.873 189.659 227.5 235.195C194 271.195 159 331.695 108 319.199Z" fill="#232E27"/>
<path opacity="0.5" d="M108 345.599C34.5093 327.593 -47.5 424.766 -73.5 461.099L-38 781.599H640.5C740.5 559.932 851.624 420.289 585.5 273.099C383 161.099 269.873 216.059 227.5 261.594C194 297.594 159 358.094 108 345.599Z" fill="#232E27"/>
<path opacity="0.5" d="M108 371.999C34.5093 353.993 -47.5 451.166 -73.5 487.499L-38 807.999H640.5C740.5 586.332 851.624 446.688 585.5 299.499C383 187.499 269.873 242.459 227.5 287.994C194 323.994 159 384.494 108 371.999Z" fill="#232E27"/>
<path opacity="0.5" d="M108 398.398C34.5093 380.393 -47.5 477.565 -73.5 513.899L-38 834.398H640.5C740.5 612.732 851.624 473.088 585.5 325.899C383 213.898 269.873 268.858 227.5 314.394C194 350.394 159 410.894 108 398.398Z" fill="#232E27"/>
<path d="M108 266.4C34.5093 248.394 -47.5 345.567 -73.5 381.9L-38 702.4H640.5C740.5 480.733 851.624 341.089 585.5 193.9C383 81.8999 269.873 136.86 227.5 182.395C194 218.395 159 278.895 108 266.4Z" fill="black" fill-opacity="0.15"/>
</g>
</svg>
