<svg width="375" height="437" viewBox="0 0 375 437" fill="none" xmlns="http://www.w3.org/2000/svg">
<mask id="mask0" mask-type="alpha" maskUnits="userSpaceOnUse" x="0" y="0" width="375" height="437">
<rect width="375" height="437" fill="#C4C4C4"/>
</mask>
<g mask="url(#mask0)">
<path opacity="0.5" d="M108 266.4C34.5093 248.394 -47.5 345.567 -73.5 381.9L-38 702.4H640.5C740.5 480.733 851.624 341.089 585.5 193.9C383 81.8999 269.873 136.86 227.5 182.395C194 218.395 159 278.895 108 266.4Z" fill="#232E27"/>
<path opacity="0.5" d="M108 292.8C34.5093 274.794 -47.5 371.966 -73.5 408.3L-38 728.799H640.5C740.5 507.133 851.624 367.489 585.5 220.3C383 108.3 269.873 163.259 227.5 208.795C194 244.795 159 305.295 108 292.8Z" fill="#232E27"/>
<path opacity="0.5" d="M108 319.199C34.5093 301.193 -47.5 398.366 -73.5 434.699L-38 755.199H640.5C740.5 533.532 851.624 393.889 585.5 246.699C383 134.699 269.873 189.659 227.5 235.195C194 271.195 159 331.695 108 319.199Z" fill="#232E27"/>
<path opacity="0.5" d="M108 345.599C34.5093 327.593 -47.5 424.766 -73.5 461.099L-38 781.599H640.5C740.5 559.932 851.624 420.289 585.5 273.099C383 161.099 269.873 216.059 227.5 261.594C194 297.594 159 358.094 108 345.599Z" fill="#232E27"/>
<path opacity="0.5" d="M108 371.999C34.5093 353.993 -47.5 451.166 -73.5 487.499L-38 807.999H640.5C740.5 586.332 851.624 446.688 585.5 299.499C383 187.499 269.873 242.459 227.5 287.994C194 323.994 159 384.494 108 371.999Z" fill="#232E27"/>
<path opacity="0.5" d="M108 398.398C34.5093 380.393 -47.5 477.565 -73.5 513.899L-38 834.398H640.5C740.5 612.732 851.624 473.088 585.5 325.899C383 213.898 269.873 268.858 227.5 314.394C194 350.394 159 410.894 108 398.398Z" fill="#232E27"/>
<path fill-rule="evenodd" clip-rule="evenodd" d="M103.933 9.75214C104.825 7.07023 108.282 5.01294 111.79 4.99875L111.792 4.99286C112.026 4.99192 112.282 5.0011 112.516 5.01871C116.252 5.30018 120.397 8.77274 120.786 11.813C130.593 14.8601 146.563 23.981 147.174 27.4942C148.895 37.4027 150.864 40.9305 154.229 46.3523C154.74 47.1754 154.603 48.4608 154.468 49.7202C154.369 50.6488 154.271 51.5633 154.436 52.2682C156.779 54.0935 160.515 57.6441 164.468 61.4017L164.468 61.402C167.096 63.8999 169.82 66.4892 172.295 68.7239C172.888 69.2592 171.806 70.6122 170.667 70.5323C165.822 70.1924 155.743 68.9089 151.567 67.9747C151.288 69.3014 151.298 70.6035 151.306 71.7304V71.7307C151.315 72.8409 151.322 73.7812 151.05 74.4073C150.675 75.2724 149.987 75.2932 149.29 75.3141C148.389 75.3413 147.473 75.3688 147.199 77.2231C146.756 80.2278 147.796 84.2351 148.853 88.3058C150.137 93.2519 151.445 98.2914 150.146 101.739C148.321 106.583 143.611 104.425 140.984 103.222C140.725 103.103 140.486 102.994 140.273 102.901C139.355 103.332 139.18 104.62 139.005 105.908C138.88 106.827 138.755 107.746 138.36 108.352C137.893 109.069 137.252 109.735 136.607 110.406C136.077 110.957 135.544 111.511 135.104 112.098C151.268 118.741 150.124 129.442 146.294 142.841L145.157 142.944L144.718 144.546L146.682 145.605L146.087 146.69H144.123L142.908 151.185L145.105 152.063L141.332 162.654C144.627 163.517 145.46 164.557 146.276 165.575C146.77 166.191 147.258 166.8 148.284 167.356C149.059 166.289 149.901 165.028 150.785 163.702C153.05 160.306 155.599 156.484 158.053 154.414C158.337 154.174 158.619 153.941 158.899 153.709C159.188 153.47 159.474 153.233 159.759 152.993C159.776 152.194 159.698 151.455 159.475 150.875C159.362 150.583 159.136 150.389 158.902 150.188C158.619 149.946 158.325 149.694 158.208 149.247C157.994 148.431 157.62 146.662 159.035 146.379C163.012 145.587 166.864 142.334 167.719 137.493C164.808 137.436 161.989 136.445 159.785 134.134C153.056 126.668 154.139 114.898 157.459 105.976C161.12 96.5412 168.366 86.5028 179.143 85.3092C179.547 85.2733 179.939 85.2499 180.332 85.2575C186.213 85.3724 190.691 90.2601 192.066 95.772C195.319 109.011 189.787 123.66 179.789 132.559C177.484 134.767 174.369 136.459 171.131 137.157C170.672 139.149 170.124 142.294 170.846 143.797C170.949 144.01 171.226 144.119 171.503 144.228C171.787 144.34 172.07 144.452 172.165 144.675C172.358 145.131 172.178 145.906 171.88 146.302C171.819 146.384 171.711 146.47 171.598 146.56C171.382 146.732 171.149 146.917 171.208 147.103C171.554 148.191 172.094 148.759 172.811 149.17H172.837C178.477 150.475 183.899 153.932 187.154 158.548C188.658 160.68 186.641 164.19 184.57 163.87C182.218 166.151 179.127 169.606 177.331 171.615L177.328 171.619L177.327 171.62L177.323 171.624L176.993 171.993C176.854 172.148 176.726 172.291 176.61 172.421C176.764 173.38 177.46 174.021 178.139 174.646C178.801 175.256 179.447 175.85 179.556 176.709C179.708 177.911 178.981 179 178.248 180.099C177.611 181.053 176.969 182.015 176.894 183.064C176.846 183.732 177.171 184.053 177.547 184.423C178.085 184.953 178.726 185.584 178.522 187.482C177.463 197.329 172.227 211.669 167.099 218.301C167.221 218.79 167.378 219.051 167.504 219.26C167.705 219.595 167.827 219.798 167.605 220.598C167.414 221.289 167.23 221.722 165.485 221.585C160.996 229.105 154.93 238.644 150.83 244.134C148.722 246.958 146.765 253.657 144.931 262.995C133.539 267.949 121.315 269.662 108 266.4C60.5332 254.77 9.51261 291.19 -27.6748 328.231C-21.2704 265.509 -12.345 200.511 -9.47299 191.62C-4.69024 176.811 3.57435 157.927 11.1252 144.318C17.2304 133.315 29.173 112.695 34.8248 109.547C36.0264 108.877 36.1127 107.792 35.4709 106.576C35.1127 105.897 34.1862 105.471 33.2599 105.046C32.2587 104.586 31.2575 104.126 30.9739 103.346C30.541 102.157 30.3508 98.73 31.5683 97.4306C31.7558 97.2306 32.1109 97.2545 32.4671 97.2784C32.811 97.3016 33.1559 97.3248 33.3515 97.1465C33.9851 96.569 34.0219 95.4639 34.0586 94.3613C34.0964 93.2251 34.1342 92.0916 34.8247 91.5406C36.5377 90.1736 39.3575 90.8534 42.2571 91.5524C43.9563 91.962 45.6828 92.3782 47.2302 92.3931C47.7442 92.398 48.4235 92.4108 49.1774 92.425C51.4238 92.4673 54.3322 92.522 55.5005 92.4189C55.9043 91.354 55.4979 89.7329 55.0551 87.9665C54.5588 85.9869 54.0168 83.8251 54.5184 82.0599C54.6764 81.5039 55.2417 80.8086 55.8256 80.0902C56.7096 79.0028 57.6364 77.8628 57.258 77.074C53.3296 77.7281 47.8984 77.7063 43.4051 76.6606C42.6628 76.4879 41.2387 75.356 41.6219 74.6973C42.8752 72.5426 47.1876 68.7126 51.3398 65.0248C54.898 61.8646 58.3386 58.8088 59.6356 57.0015C60.3689 55.9795 60.6069 54.4785 60.8426 52.9927C61.0377 51.7621 61.2312 50.5419 61.7031 49.6131C63.1867 46.6932 63.9298 43.6982 64.6684 40.7215C66.4448 33.5623 68.1949 26.5088 80.156 20.8605C81.4502 20.2494 82.6285 19.139 83.8589 17.9797C85.0706 16.8378 86.3329 15.6484 87.8061 14.8413C91.8205 12.642 98.3233 9.77616 103.933 9.75214ZM178.677 88.0548C186.17 88.0461 189.158 96.7522 189.015 103.116C188.714 114.765 183.679 127.12 173.379 133.134C168.51 136.209 161.757 134.048 159.733 128.665C155.271 117.664 159.29 104.788 166.039 95.8303C169.19 92.0115 173.408 88.2229 178.677 88.0548ZM141.073 141.582C147.832 126.431 145.374 118.809 134.147 113.991C133.99 114.532 133.894 115.101 133.799 115.669C133.651 116.558 133.502 117.447 133.114 118.228C132.94 118.577 132.544 118.898 132.115 119.246C131.549 119.706 130.925 120.212 130.684 120.889C130.385 121.729 130.178 122.624 129.97 123.526L129.97 123.527C129.6 125.134 129.224 126.764 128.307 128.148C127.237 129.76 121.947 130.395 116.779 130.447C114.876 130.466 112.882 130.236 110.79 129.994L110.789 129.994C107.202 129.58 103.327 129.133 99.1269 129.853C97.7695 132.687 101.271 135.707 104.826 138.774C108.244 141.723 111.712 144.714 110.964 147.626C110.676 148.744 109.675 148.399 108.343 147.939C107.129 147.521 105.64 147.007 104.166 147.42C102.336 149.115 102.368 153.072 103.934 155.015C111.731 164.692 124.626 181.877 131.484 192.215C132.476 191.38 133.712 190.151 135.13 188.742L135.131 188.74C136.08 187.797 137.111 186.772 138.204 185.731C138.673 185.284 139.092 184.779 139.496 184.258C137.024 182.077 133.414 177.94 133.345 170.386C133.299 165.372 134.253 163.985 135.36 162.377C136.627 160.535 138.094 158.404 138.488 150.21L140.814 150.468L141.564 146.102L139.884 145.302L139.935 143.829H141.951L142.236 142.202L141.073 141.582ZM178.599 90.3798C178.307 90.386 178.02 90.4168 177.721 90.4573C169.734 91.7212 164.635 99.7723 162.188 107.249C161.408 109.744 160.833 112.504 160.663 115.283C160.981 112.466 161.774 109.678 162.757 107.197C166.305 98.1831 178.003 85.9673 186.56 95.5725C184.903 92.5481 182.032 90.3077 178.599 90.3798Z" fill="black" fill-opacity="0.15"/>
</g>
</svg>
