<svg width="193" height="433" viewBox="0 0 193 433" fill="none" xmlns="http://www.w3.org/2000/svg">
<path fill-rule="evenodd" clip-rule="evenodd" d="M111.79 0.998743C108.282 1.01295 104.825 3.07023 103.933 5.75212C98.3233 5.77615 91.8205 8.64201 87.8061 10.8413C86.3329 11.6484 85.0707 12.8378 83.859 13.9796L83.8589 13.9796C82.6285 15.139 81.4502 16.2494 80.156 16.8605C68.1949 22.5088 66.4448 29.5622 64.6684 36.7215L64.6684 36.7215L64.6684 36.7216L64.6683 36.7217C63.9298 39.6983 63.1867 42.6933 61.7031 45.6131C61.2312 46.5419 61.0377 47.7621 60.8426 48.9927L60.8426 48.9927C60.607 50.4785 60.3689 51.9795 59.6356 53.0015C58.3386 54.8088 54.898 57.8646 51.3398 61.0248C47.1876 64.7126 42.8752 68.5426 41.6219 70.6973C41.2387 71.356 42.6628 72.4879 43.4051 72.6606C47.8984 73.7063 53.3296 73.7281 57.258 73.074C57.6364 73.8628 56.7096 75.0028 55.8256 76.0902C55.2417 76.8086 54.6764 77.5039 54.5184 78.0598C54.0168 79.8251 54.5588 81.9869 55.055 83.9665L55.0551 83.9665C55.4979 85.7328 55.9043 87.354 55.5005 88.4189C54.3323 88.522 51.424 88.4672 49.1776 88.425C48.4236 88.4108 47.7442 88.398 47.2302 88.3931C45.6828 88.3782 43.9563 87.962 42.2571 87.5524C39.3575 86.8533 36.5377 86.1736 34.8247 87.5406C34.1342 88.0916 34.0964 89.2251 34.0586 90.3613C34.0219 91.4639 33.9851 92.569 33.3515 93.1465C33.1559 93.3248 32.811 93.3016 32.4671 93.2784C32.1109 93.2545 31.7558 93.2306 31.5683 93.4306C30.3508 94.73 30.541 98.157 30.9739 99.3465C31.2575 100.126 32.2587 100.586 33.2599 101.046C34.1863 101.471 35.1127 101.897 35.4709 102.576C36.1127 103.792 36.0264 104.877 34.8248 105.547C29.173 108.695 17.2304 129.315 11.1252 140.318C7.42356 146.989 3.5504 154.929 0 163.034V433H124.888C127.496 417.446 130.07 390.297 132.834 361.135L132.834 361.135C137.789 308.87 143.356 250.143 150.83 240.134C154.93 234.645 160.996 225.105 165.485 217.585C167.23 217.722 167.414 217.289 167.605 216.598C167.827 215.798 167.705 215.595 167.504 215.26C167.378 215.051 167.221 214.79 167.099 214.301C172.227 207.669 177.463 193.329 178.522 183.482C178.726 181.584 178.085 180.953 177.547 180.423C177.171 180.053 176.846 179.732 176.894 179.064C176.969 178.015 177.611 177.053 178.248 176.099C178.981 175 179.708 173.911 179.556 172.709C179.447 171.85 178.801 171.256 178.139 170.646C177.46 170.021 176.764 169.38 176.61 168.421C176.814 168.193 177.055 167.924 177.325 167.622L177.326 167.62C179.122 165.612 182.216 162.153 184.57 159.87C186.641 160.19 188.658 156.68 187.154 154.548C183.899 149.932 178.477 146.475 172.837 145.17H172.811C172.094 144.759 171.554 144.191 171.208 143.103C171.149 142.917 171.382 142.732 171.598 142.56C171.711 142.47 171.819 142.384 171.88 142.303C172.178 141.906 172.358 141.131 172.165 140.675C172.07 140.452 171.787 140.34 171.503 140.228C171.226 140.119 170.949 140.01 170.846 139.797C170.124 138.294 170.672 135.149 171.131 133.157C174.369 132.459 177.484 130.767 179.789 128.559C189.787 119.66 195.319 105.011 192.066 91.772C190.691 86.2601 186.213 81.3724 180.332 81.2575C179.939 81.2499 179.547 81.2733 179.143 81.3092C168.366 82.5028 161.12 92.5412 157.459 101.976C154.139 110.898 153.056 122.668 159.785 130.134C161.989 132.445 164.808 133.436 167.719 133.493C166.864 138.334 163.012 141.587 159.035 142.379C157.62 142.662 157.994 144.431 158.208 145.247C158.325 145.694 158.619 145.946 158.902 146.188C159.136 146.389 159.362 146.582 159.475 146.875C159.698 147.455 159.776 148.194 159.759 148.993C159.475 149.233 159.189 149.47 158.9 149.708L158.897 149.711L158.897 149.711C158.617 149.942 158.336 150.175 158.053 150.414C155.599 152.484 153.05 156.306 150.785 159.702C149.901 161.028 149.059 162.289 148.284 163.356C147.258 162.8 146.77 162.191 146.276 161.575C145.46 160.557 144.627 159.517 141.332 158.654L145.105 148.063L142.908 147.185L144.123 142.69H146.087L146.682 141.605L144.718 140.546L145.157 138.944L146.294 138.841C150.124 125.442 151.268 114.741 135.104 108.098C135.544 107.511 136.077 106.957 136.607 106.406L136.607 106.406C137.252 105.735 137.893 105.069 138.36 104.352C138.755 103.746 138.88 102.827 139.005 101.908V101.908C139.18 100.62 139.355 99.3318 140.273 98.9014C140.486 98.9939 140.725 99.1033 140.984 99.2219C143.611 100.425 148.32 102.583 150.146 97.739C151.445 94.2914 150.137 89.2519 148.853 84.3058C147.796 80.2351 146.756 76.2278 147.199 73.2231C147.473 71.3688 148.389 71.3412 149.29 71.3141C149.987 71.2931 150.675 71.2724 151.05 70.4073C151.322 69.7812 151.315 68.841 151.306 67.7307V67.7304C151.298 66.6035 151.288 65.3013 151.567 63.9747C155.743 64.9089 165.822 66.1924 170.667 66.5323C171.806 66.6123 172.888 65.2592 172.295 64.7239C169.82 62.4892 167.096 59.8998 164.468 57.402C160.515 53.6443 156.779 50.0936 154.436 48.2681C154.271 47.5633 154.369 46.6488 154.468 45.7202C154.603 44.4608 154.74 43.1754 154.229 42.3523C150.864 36.9306 148.895 33.4027 147.174 23.4942C146.563 19.981 130.593 10.8601 120.786 7.81298C120.397 4.77272 116.252 1.30018 112.516 1.0187C112.282 1.00111 112.026 0.991914 111.792 0.992865L111.79 0.998743ZM189.015 99.116C189.158 92.7522 186.17 84.0461 178.677 84.0548C173.408 84.2229 169.19 88.0115 166.039 91.8303C159.29 100.788 155.271 113.664 159.733 124.665C161.757 130.048 168.51 132.209 173.379 129.134C183.679 123.12 188.714 110.765 189.015 99.116ZM134.147 109.991C145.374 114.809 147.832 122.431 141.073 137.582L142.236 138.202L141.951 139.829H139.935L139.884 141.302L141.564 142.102L140.814 146.468L138.488 146.21C138.094 154.404 136.627 156.535 135.36 158.377C134.253 159.985 133.299 161.372 133.345 166.386C133.414 173.94 137.024 178.077 139.496 180.258C139.092 180.779 138.673 181.284 138.204 181.731C137.111 182.772 136.08 183.797 135.131 184.74C133.713 186.15 132.476 187.38 131.484 188.215C124.626 177.877 111.731 160.692 103.934 151.015C102.369 149.072 102.336 145.115 104.166 143.42C105.64 143.007 107.129 143.521 108.343 143.939C109.675 144.399 110.676 144.744 110.964 143.626C111.712 140.714 108.244 137.723 104.826 134.774C101.271 131.707 97.7695 128.687 99.1269 125.853C103.327 125.133 107.202 125.58 110.789 125.994L110.789 125.994C112.881 126.236 114.876 126.466 116.779 126.447C121.947 126.395 127.237 125.76 128.307 124.148C129.224 122.764 129.6 121.134 129.97 119.527L129.97 119.526C130.178 118.624 130.385 117.729 130.684 116.889C130.925 116.212 131.549 115.706 132.115 115.246C132.544 114.898 132.94 114.577 133.114 114.228C133.502 113.447 133.651 112.558 133.799 111.669C133.894 111.101 133.99 110.532 134.147 109.991ZM177.721 86.4573C178.02 86.4168 178.307 86.386 178.599 86.3798C182.032 86.3077 184.903 88.5481 186.56 91.5724C178.003 81.9673 166.305 94.1831 162.757 103.197C161.774 105.678 160.981 108.466 160.663 111.283C160.833 108.504 161.408 105.744 162.188 103.249C164.635 95.7723 169.734 87.7212 177.721 86.4573Z" fill="black" fill-opacity="0.15"/>
</svg>
