<svg width="384" height="318" viewBox="0 0 384 318" fill="none" xmlns="http://www.w3.org/2000/svg">
<mask id="mask0" mask-type="alpha" maskUnits="userSpaceOnUse" x="4" y="0" width="376" height="310">
<path d="M4.08252 0H379.083V310H4.08252V0Z" fill="#C4C4C4"/>
</mask>
<g mask="url(#mask0)">
<path d="M271.083 139.4C344.573 121.394 426.583 218.567 452.583 254.9L417.083 575.4H-261.417C-361.417 353.733 -472.541 214.089 -206.417 66.9C-3.91748 -45.1001 109.21 9.86003 151.583 55.395C185.083 91.395 220.083 151.895 271.083 139.4Z" fill="#DFDFDF"/>
<path opacity="0.5" d="M271.083 139.4C344.573 121.394 426.583 218.567 452.583 254.9L417.083 575.4H-261.417C-361.417 353.733 -472.541 214.089 -206.417 66.9C-3.91748 -45.1001 109.21 9.86003 151.583 55.395C185.083 91.395 220.083 151.895 271.083 139.4Z" fill="#232E27"/>
<path opacity="0.5" d="M271.083 165.8C344.573 147.794 426.583 244.966 452.583 281.3L417.083 601.799H-261.417C-361.417 380.133 -472.541 240.489 -206.417 93.3C-3.91748 -18.7 109.21 36.259 151.583 81.795C185.083 117.795 220.083 178.295 271.083 165.8Z" fill="#232E27"/>
<path opacity="0.5" d="M271.083 192.199C344.573 174.193 426.583 271.366 452.583 307.699L417.083 628.199H-261.417C-361.417 406.532 -472.541 266.889 -206.417 119.699C-3.91748 7.69904 109.21 62.659 151.583 108.195C185.083 144.195 220.083 204.695 271.083 192.199Z" fill="#232E27"/>
<path opacity="0.5" d="M271.083 218.599C344.573 200.593 426.583 297.766 452.583 334.099L417.083 654.599H-261.417C-361.417 432.932 -472.541 293.289 -206.417 146.099C-3.91748 34.099 109.21 89.059 151.583 134.594C185.083 170.594 220.083 231.094 271.083 218.599Z" fill="#232E27"/>
<path opacity="0.5" d="M271.083 244.999C344.573 226.993 426.583 324.166 452.583 360.499L417.083 680.999H-261.417C-361.417 459.332 -472.541 319.688 -206.417 172.499C-3.91748 60.499 109.21 115.459 151.583 160.994C185.083 196.994 220.083 257.494 271.083 244.999Z" fill="#232E27"/>
<path opacity="0.5" d="M271.083 271.398C344.573 253.393 426.583 350.565 452.583 386.899L417.083 707.398H-261.417C-361.417 485.732 -472.541 346.088 -206.417 198.899C-3.91748 86.898 109.21 141.858 151.583 187.394C185.083 223.394 220.083 283.894 271.083 271.398Z" fill="#232E27"/>
<path d="M271.083 139.4C344.573 121.394 426.583 218.567 452.583 254.9L417.083 575.4H-261.417C-361.417 353.733 -472.541 214.089 -206.417 66.9C-3.91748 -45.1001 109.21 9.86003 151.583 55.395C185.083 91.395 220.083 151.895 271.083 139.4Z" fill="black" fill-opacity="0.15"/>
</g>
</svg>
