<svg width="375" height="309" viewBox="0 0 375 309" fill="none" xmlns="http://www.w3.org/2000/svg">
<mask id="mask0" mask-type="alpha" maskUnits="userSpaceOnUse" x="0" y="0" width="375" height="309">
<rect width="375" height="309" fill="#C4C4C4"/>
</mask>
<g mask="url(#mask0)">
<path opacity="0.5" d="M251.082 138.4C324.573 120.394 406.582 217.567 432.582 253.9L397.082 574.4H-281.418C-381.418 352.733 -492.541 213.089 -226.418 65.8999C-23.9177 -46.1001 89.2089 8.85967 131.582 54.3953C165.082 90.3953 200.082 150.895 251.082 138.4Z" fill="#232E27"/>
<path opacity="0.5" d="M251.082 164.799C324.573 146.794 406.582 243.966 432.582 280.3L397.082 600.799H-281.418C-381.418 379.133 -492.541 239.489 -226.418 92.2996C-23.9177 -19.7005 89.2089 35.2593 131.582 80.795C165.082 116.795 200.082 177.295 251.082 164.799Z" fill="#232E27"/>
<path opacity="0.5" d="M251.082 191.199C324.573 173.193 406.582 270.366 432.582 306.699L397.082 627.199H-281.418C-381.418 405.532 -492.541 265.889 -226.418 118.699C-23.9177 6.69932 89.2089 61.6591 131.582 107.195C165.082 143.195 200.082 203.695 251.082 191.199Z" fill="#232E27"/>
<path opacity="0.5" d="M251.082 217.599C324.573 199.593 406.582 296.766 432.582 333.099L397.082 653.599H-281.418C-381.418 431.932 -492.541 292.289 -226.418 145.099C-23.9177 33.0991 89.2089 88.0589 131.582 133.595C165.082 169.595 200.082 230.095 251.082 217.599Z" fill="#232E27"/>
<path opacity="0.5" d="M251.082 243.999C324.573 225.993 406.582 323.166 432.582 359.499L397.082 679.999H-281.418C-381.418 458.332 -492.541 318.688 -226.418 171.499C-23.9177 59.4988 89.2089 114.459 131.582 159.994C165.082 195.994 200.082 256.494 251.082 243.999Z" fill="#232E27"/>
<path opacity="0.5" d="M251.082 270.398C324.573 252.392 406.582 349.565 432.582 385.898L397.082 706.398H-281.418C-381.418 484.732 -492.541 345.088 -226.418 197.898C-23.9177 85.8984 89.2089 140.858 131.582 186.394C165.082 222.394 200.082 282.894 251.082 270.398Z" fill="#232E27"/>
</g>
</svg>
