<svg width="377" height="512" viewBox="0 0 377 512" fill="none" xmlns="http://www.w3.org/2000/svg">
<mask id="mask0" mask-type="alpha" maskUnits="userSpaceOnUse" x="0" y="0" width="377" height="512">
<path d="M0.275146 0.885254H376.275V511.885H0.275146V0.885254Z" fill="#C4C4C4"/>
</mask>
<g mask="url(#mask0)">
<path opacity="0.5" d="M181.267 439.807C116.048 478.167 9.57802 408.652 -25.764 381.32L-83.838 64.1328L566.058 -130.796C725.526 52.7959 872.083 154.627 659.466 372.067C497.68 537.523 373.532 517.381 319.863 485.938C277.433 461.08 226.527 413.186 181.267 439.807Z" fill="#232E27"/>
<path opacity="0.5" d="M173.683 414.52C108.463 452.88 1.9941 383.365 -33.3479 356.033L-91.4229 38.846L558.473 -156.083C717.941 27.5091 864.499 129.34 651.881 346.781C490.095 512.236 365.948 492.094 312.279 460.652C269.848 435.794 218.943 387.899 173.683 414.52Z" fill="#232E27"/>
<path opacity="0.5" d="M166.098 389.233C100.878 427.594 -5.59092 358.078 -40.9329 330.746L-99.0069 13.5592L550.889 -181.37C710.357 2.22232 856.914 104.054 644.297 321.494C482.51 486.949 358.363 466.807 304.694 435.365C262.264 410.507 211.358 362.613 166.098 389.233Z" fill="#232E27"/>
<path opacity="0.5" d="M158.514 363.947C93.294 402.307 -13.175 332.792 -48.517 305.46L-106.592 -11.7276L543.304 -206.657C702.772 -23.0645 849.33 78.7669 636.712 296.207C474.926 461.663 350.779 441.52 297.11 410.078C254.679 385.22 203.774 337.326 158.514 363.947Z" fill="#232E27"/>
<path opacity="0.5" d="M150.929 338.66C85.71 377.02 -20.76 307.505 -56.102 280.173L-114.176 -37.0144L535.72 -231.944C695.188 -48.3513 841.745 53.4801 629.128 270.92C467.342 436.376 343.195 416.234 289.525 384.791C247.095 359.933 196.189 312.039 150.929 338.66Z" fill="#232E27"/>
<path opacity="0.5" d="M143.344 313.373C78.125 351.733 -28.344 282.218 -63.686 254.886L-121.761 -62.3011L528.135 -257.23C687.603 -73.638 834.161 28.1933 621.543 245.633C459.757 411.089 335.61 390.947 281.941 359.504C239.51 334.647 188.605 286.752 143.344 313.373Z" fill="#232E27"/>
</g>
</svg>
